<svg xmlns="http://www.w3.org/2000/svg" width="20" height="27" viewBox="0 0 20 27">
    <defs>
        <linearGradient id="a" x1="107.389%" x2="14.933%" y1="129.139%" y2="4.486%">
            <stop offset="0%" stop-color="#51D2EC"/>
            <stop offset="100%" stop-color="#35B460"/>
        </linearGradient>
    </defs>
    <g fill="none" fill-rule="nonzero">
        <path fill="url(#a)" d="M0 24.209c0 .324.267.587.597.587.33 0 .597-.263.597-.587 0-1.53 1.543-2.398 3.25-3.275 1.708.877 3.25 1.745 3.25 3.275 0 .324.268.587.598.587.33 0 .597-.263.597-.587 0-1.934-1.533-3.043-3.173-3.937 1.64-.894 3.173-2.003 3.173-3.937 0-1.934-1.533-3.043-3.173-3.937 1.64-.894 3.173-2.003 3.173-3.937 0-1.934-1.533-3.043-3.173-3.937C7.356 3.63 8.89 2.521 8.89.587A.592.592 0 0 0 8.292 0a.592.592 0 0 0-.597.587c0 1.53-1.543 2.397-3.25 3.275C2.736 2.984 1.193 2.117 1.193.587A.592.592 0 0 0 .597 0 .592.592 0 0 0 0 .587C0 2.521 1.533 3.63 3.173 4.524 1.533 5.418 0 6.527 0 8.461c0 1.934 1.533 3.043 3.173 3.937C1.533 13.292 0 14.4 0 16.335c0 .864.318 1.65.946 2.337a.6.6 0 0 0 .843.044.58.58 0 0 0 .045-.83c-.437-.477-.64-.97-.64-1.551 0-1.53 1.543-2.397 3.25-3.275 1.708.877 3.25 1.745 3.25 3.275 0 1.53-1.542 2.397-3.25 3.274a23.367 23.367 0 0 1-1.222-.663.603.603 0 0 0-.82.2.582.582 0 0 0 .203.806c.185.11.376.215.568.32C1.533 21.165 0 22.275 0 24.209zM1.194 8.46c0-1.53 1.543-2.397 3.25-3.275 1.708.878 3.25 1.745 3.25 3.275 0 1.53-1.542 2.397-3.25 3.275-1.707-.878-3.25-1.745-3.25-3.275z" transform="rotate(29 5.092 23.69)"/>
        <path fill="#FFF" d="M17.01 5.1c.348.193.748.133.896-.133.147-.266-.014-.638-.361-.83l-3.117-1.728c-.347-.192-.748-.132-.895.134-.148.266.014.638.36.83l3.118 1.728zM3.208 22.65c-.347-.192-.748-.132-.895.134-.148.266.014.638.36.83l3.118 1.728c.347.192.747.132.895-.134.148-.266-.014-.638-.36-.83L3.207 22.65zM10.688 9.156l3.117 1.728c.347.192.748.132.895-.134.148-.266-.014-.638-.36-.83l-3.118-1.728c-.347-.192-.747-.132-.895.134-.147.266.014.638.361.83zM13.004 12.33c.346.192.747.132.895-.134.147-.266-.014-.638-.361-.83L10.42 9.638c-.347-.192-.748-.132-.895.134-.148.266.014.638.36.83l3.118 1.728zM7.215 15.421l3.117 1.728c.347.192.748.133.895-.134.148-.266-.014-.637-.36-.83l-3.118-1.727c-.346-.193-.747-.133-.895.133-.147.267.014.638.361.83zM6.147 17.35l3.117 1.727c.347.192.747.132.895-.134.147-.266-.014-.638-.361-.83L6.68 16.385c-.347-.192-.748-.132-.895.134-.148.266.014.638.36.83z"/>
    </g>
</svg>
