<svg xmlns="http://www.w3.org/2000/svg" width="22" height="23" viewBox="0 0 22 23">
    <defs>
        <linearGradient id="a" x1="72.546%" x2="30.214%" y1="0%" y2="100%">
            <stop offset="0%" stop-color="#FAD961"/>
            <stop offset="100%" stop-color="#F79D1C"/>
        </linearGradient>
    </defs>
    <g fill="url(#a)" fill-rule="evenodd" transform="translate(-59 -238)">
        <path fill-rule="nonzero" d="M64.116 247.344h2.5v10.062h-2.5zM67.36 247.344h2.5v10.062h-2.5zM70.604 247.344h2.5v10.062h-2.5zM73.848 247.344h2.5v10.062h-2.5z"/>
        <path d="M70.72 238.924l9.704 8.21a.756.756 0 0 1-.488 1.333H60.528a.756.756 0 0 1-.489-1.334l9.704-8.21a.756.756 0 0 1 .977 0z"/>
        <path fill-rule="nonzero" d="M76.953 255.511c.69 0 1.25.585 1.25 1.307s-.56 1.307-1.25 1.307H63.165c-.69 0-1.25-.585-1.25-1.307s.56-1.307 1.25-1.307h13.788zM79.268 258.386c.69 0 1.25.585 1.25 1.307s-.56 1.307-1.25 1.307H61.195c-.69 0-1.25-.585-1.25-1.307s.56-1.307 1.25-1.307h18.073z"/>
    </g>
</svg>
