<svg xmlns="http://www.w3.org/2000/svg" width="19" height="22" viewBox="0 0 19 22">
    <defs>
        <linearGradient id="a" x1="50%" x2="50%" y1="0%" y2="100%">
            <stop offset="0%" stop-color="#5C77A0"/>
            <stop offset="100%" stop-color="#5FADC6"/>
        </linearGradient>
    </defs>
    <g fill="none" fill-rule="evenodd">
        <path fill="url(#a)" d="M17.53 15.592c-.376.704-1.602.998-3.282.786-.225-.029-.457-.065-.693-.11.186-.857.32-1.724.401-2.597a20.022 20.022 0 0 0 2.139-1.794c1.326 1.539 1.855 2.926 1.435 3.71v.005zm-5.65 2.147l-.551 1.252c-.54.993-1.16 1.545-1.747 1.55-.772.01-1.63-.95-2.286-2.566a13.274 13.274 0 0 1-.288-.795 19.783 19.783 0 0 0 2.478-.922 19.75 19.75 0 0 0 2.567.936c-.05.18-.11.362-.174.54v.005zM1.41 15.6c-.42-.787.114-2.185 1.45-3.731a20.19 20.19 0 0 0 2.197 1.83c.096.858.243 1.71.44 2.55-2.114.427-3.648.165-4.087-.65zm-.021-9.287c.376-.704 1.602-.998 3.281-.786.244.03.494.07.75.122a21.493 21.493 0 0 0-.407 2.605 19.751 19.751 0 0 0-2.16 1.807 10.852 10.852 0 0 1-.246-.294l-.779-1.114c-.57-.97-.724-1.794-.44-2.34zm5.768-2.27c.617-1.63 1.451-2.606 2.228-2.615.778-.01 1.63.95 2.287 2.565.1.25.195.51.283.782-.839.248-1.661.553-2.462.91a19.88 19.88 0 0 0-2.572-.947 9.11 9.11 0 0 1 .236-.695zm6.915 6.886c0-.346-.01-.688-.03-1.027.44.364.845.716 1.209 1.07-.366.365-.764.707-1.19 1.051.011-.361.015-.726.011-1.094zm-3.084-4.516c.44-.167.879-.313 1.3-.437.103.432.193.882.268 1.346a22.045 22.045 0 0 0-.879-.525c-.218-.132-.455-.26-.688-.384h-.001zm-4.649.95c.07-.49.157-.966.259-1.421.454.13.92.287 1.39.468-.242.129-.484.26-.727.398-.316.183-.623.368-.922.556zm-1.444 3.668c0 .339.01.675.03 1.009-.434-.351-.842-.71-1.217-1.073.363-.35.764-.706 1.2-1.06-.012.372-.016.747-.013 1.124zm3.089 4.496c-.452.17-.888.316-1.31.437a19.581 19.581 0 0 1-.268-1.35c.271.172.548.336.832.494.246.142.496.279.746.412v.007zm4.648-.954c-.07.485-.155.957-.255 1.415a18.46 18.46 0 0 1-1.388-.461c.238-.128.477-.257.718-.393.314-.187.622-.377.925-.569v.008zm-1.512-.546c-.555.32-1.1.602-1.636.844-.554-.26-1.11-.546-1.662-.868a25.74 25.74 0 0 1-1.618-1.02 25.689 25.689 0 0 1-.035-4.026 23.913 23.913 0 0 1 3.318-1.914c.528.255 1.075.536 1.61.843.59.34 1.146.69 1.663 1.05a25.515 25.515 0 0 1 .039 4.025c-.531.374-1.094.729-1.68 1.066zm2.965-8.442l1.326-.093c1.1.02 1.862.324 2.147.856.376.704-.033 1.937-1.097 3.297-.113.144-.233.288-.352.432a19.773 19.773 0 0 0-2.198-1.837 21.675 21.675 0 0 0-.442-2.55c.206-.047.413-.083.616-.105zm3.317 4.842c1.426-1.821 1.857-3.491 1.215-4.695-.352-.664-1.198-1.466-3.185-1.502l-1.514.104c-.257.038-.52.084-.787.14-.107-.337-.221-.66-.351-.967-.864-2.15-2.065-3.334-3.382-3.334h-.025C8.045.19 6.858 1.4 6.032 3.584c-.104.276-.201.563-.292.86a12.65 12.65 0 0 0-.922-.155C2.567 4.005.973 4.511.33 5.713c-.352.665-.566 1.821.46 3.593l.89 1.275c.104.127.213.255.324.382C.302 12.915-.379 14.836.351 16.202c.543 1.016 1.748 1.511 3.359 1.511a10.534 10.534 0 0 0 2.121-.24c.109.34.225.67.352.981.869 2.152 2.07 3.338 3.387 3.338h.025c.735 0 1.815-.395 2.789-2.185l.631-1.43c.081-.224.155-.455.227-.693.292.058.58.105.86.142.385.05.773.075 1.16.076 1.638 0 2.8-.517 3.328-1.5.73-1.362.057-3.278-1.637-5.226.157-.188.31-.368.449-.548z"/>
        <path fill="#FFF" d="M9.46 8.401c1.369 0 2.479 1.15 2.479 2.567 0 1.418-1.11 2.568-2.48 2.568-1.37 0-2.48-1.15-2.48-2.568 0-1.418 1.11-2.567 2.48-2.567"/>
    </g>
</svg>
