<svg xmlns="http://www.w3.org/2000/svg" width="25" height="22" viewBox="0 0 25 22">
    <defs>
        <linearGradient id="a" x1="36.728%" x2="82.115%" y1="14.485%" y2="83.771%">
            <stop offset="0%" stop-color="#FC5F6B"/>
            <stop offset="100%" stop-color="#FF4D55"/>
        </linearGradient>
    </defs>
    <g fill="none" fill-rule="nonzero">
        <path fill="url(#a)" d="M18.795 21.855H6.206c-1.791 0-3.253-1.458-3.299-3.269L.161 6.796a.705.705 0 0 1 .298-.751.68.68 0 0 1 .796.038l6.538 5.202 4.178-5.1c.261-.318.796-.319 1.058 0l4.18 5.1 6.536-5.202a.68.68 0 0 1 .796-.038c.246.16.366.461.298.75l-2.745 11.791c-.046 1.81-1.508 3.27-3.3 3.27z"/>
        <path fill="#FFF" d="M12.642 15.776c-1.018 0-1.847-.843-1.847-1.882 0-1.037.829-1.88 1.847-1.88 1.019 0 1.847.843 1.847 1.88 0 1.039-.828 1.882-1.847 1.882z"/>
        <path fill="url(#a)" d="M12.642 4.197c-1.018 0-1.847-.843-1.847-1.882 0-1.037.829-1.88 1.847-1.88 1.019 0 1.847.843 1.847 1.88 0 1.039-.828 1.882-1.847 1.882z"/>
        <path fill="#FFF" d="M3.48 15.776c-.666 0-1.207-.843-1.207-1.882 0-1.037.541-1.88 1.207-1.88s1.208.843 1.208 1.88c0 1.039-.542 1.882-1.208 1.882zM21.378 15.776c-.666 0-1.208-.843-1.208-1.882 0-1.037.542-1.88 1.208-1.88.666 0 1.207.843 1.207 1.88 0 1.039-.541 1.882-1.207 1.882z"/>
    </g>
</svg>
