<svg xmlns="http://www.w3.org/2000/svg" width="31" height="18" viewBox="0 0 31 18">
    <defs>
        <linearGradient id="a" x1="0%" x2="134.359%" y1="22.187%" y2="33.077%">
            <stop offset="0%" stop-color="#FFD404"/>
            <stop offset="100%" stop-color="#FC7437"/>
        </linearGradient>
        <linearGradient id="b" x1="50%" x2="50%" y1="0%" y2="100%">
            <stop offset="0%" stop-color="#FFD404"/>
            <stop offset="100%" stop-color="#FC7437"/>
        </linearGradient>
    </defs>
    <g fill="none" fill-rule="evenodd">
        <path fill="url(#a)" d="M15.5 0v9.335c-3.319 0-6.127 2.437-6.589 5.681l-8.899-3.28C1.86 4.968 8.096 0 15.5 0"/>
        <path fill="#FFF" d="M8.911 15.016L0 11.723z"/>
        <path fill="url(#b)" d="M15.5 10.131h.036l.523 4.62 3.453-3.04.073.073-2.675 3.86 4.401-.435c0 .024 0 .06.012.085l-4.437 1.64a1.481 1.481 0 0 1-1.386.953V10.13v7.744a1.48 1.48 0 0 1-1.386-.953l-4.45-1.64c.013-.025.013-.06.025-.085v-.012l4.4.434-2.674-3.86.073-.072 3.453 3.04.498-4.62h.061v.024z"/>
        <path fill="#FFF" d="M14.09 15.631l-4.401-.434a5.741 5.741 0 0 1 1.726-3.425l2.675 3.86zM15.44 10.12l-.5 4.619-3.452-3.04a5.807 5.807 0 0 1 3.951-1.58"/>
        <path fill="url(#a)" d="M30.988 11.723l-8.911 3.281c-.462-3.244-3.27-5.68-6.59-5.68V0c7.416 0 13.64 4.97 15.5 11.723" opacity=".602"/>
        <path fill="#FFF" d="M19.512 11.7l-3.453 3.039-.523-4.62c1.52.012 2.93.603 3.976 1.58M21.299 15.197l-4.401.434 2.675-3.86a5.708 5.708 0 0 1 1.726 3.426M30.988 11.723l-8.911 3.281 8.91-3.28z"/>
    </g>
</svg>
