<?xml version="1.0" encoding="UTF-8"?>
<svg width="123px" height="39px" viewBox="0 0 123 39" version="1.1" xmlns="http://www.w3.org/2000/svg" xmlns:xlink="http://www.w3.org/1999/xlink">
    <!-- Generator: sketchtool 41.2 (35397) - http://www.bohemiancoding.com/sketch -->
    <title>D4695B04-E9D3-4E74-B495-4B818A80B2BE</title>
    <desc>Created with sketchtool.</desc>
    <defs></defs>
    <g id="Symbols" stroke="none" stroke-width="1" fill="none" fill-rule="evenodd">
        <g id="propriété" transform="translate(-54.000000, -23.000000)">
            <g id="Group-4">
                <g id="logo" transform="translate(54.000000, 23.000000)">
                    <g id="Page-1">
                        <polygon id="Fill-1" fill="#FEFEFE" points="10.6671069 27.9425449 4.86110109 18.2816878 0.426718301 19.7366265 4.08092404 25.6683408"></polygon>
                        <polygon id="Fill-2" fill="#D6D6D6" points="6.3117785 0.60882449 1.76787853 6.31396735 2.29207244 13.0238245 13.4516611 0.0530081633"></polygon>
                        <polygon id="Fill-3" fill="#FEFEFE" points="13.497249 -5.30612245e-05 6.31350632 0.608559184 16.9236483 6.41637551 20.2203283 3.4563551"></polygon>
                        <polygon id="Fill-4" fill="#D6D6D6" points="21.2087475 17.8347265 22.1710102 23.6879102 10.6671866 27.9426245 4.08100379 25.6681551"></polygon>
                        <polygon id="Fill-5" fill="#FEFEFE" points="1.76803802 6.31386122 21.2086678 17.7833102 22.1709304 23.687698 1.77574675 12.7565551"></polygon>
                        <polygon id="Fill-6" fill="#D6D6D6" points="13.821893 10.1680694 14.606589 5.14555918 20.217484 3.45900816 19.8426801 8.07692653"></polygon>
                        <polygon id="Fill-7" fill="#FEFEFE" points="2.26246027 33.6892612 7.9745525e-05 38.8958939 19.122259 35.2025673 21.0438603 30.9523633"></polygon>
                        <polygon id="Fill-8" fill="#999999" points="1.76803802 6.31386122 7.30104831 7.2013102 5.94431113 8.77696327"></polygon>
                        <polygon id="Fill-9" fill="#999999" points="22.1710367 23.6877776 13.5861652 21.3302673 15.837913 20.2923898"></polygon>
                        <g id="Group-32" transform="translate(32.961483, 7.855184)" fill="#FEFEFE">
                            <path d="M6.35497399,16.0727755 C5.79967933,16.6272653 4.9663386,16.9506735 3.78610484,16.9506735 C2.67524969,16.9506735 1.79592237,16.6734286 1.19410948,16.0727755 C0.45327356,15.310551 0.22201154,14.501898 0.22201154,12.7004694 L1.58752073,12.7004694 C1.58752073,13.9707551 1.72627795,14.6406531 2.23558603,15.1489796 C2.58247906,15.4952041 3.09178714,15.7029388 3.78610484,15.7029388 C4.54980114,15.7029388 5.03598302,15.4952041 5.36001567,15.1489796 C5.89218414,14.5714082 6.00781515,13.8553469 6.00781515,12.5619796 C6.00781515,10.5061224 5.68404832,9.76671429 4.27228672,9.18940816 L2.51310045,8.47308163 C0.82382443,7.78036735 0.33764255,6.83322449 0.33764255,4.36163265 C0.33764255,2.95259184 0.707927601,1.82079592 1.47188972,1.10473469 C2.0734368,0.527163265 2.86052512,0.226836735 3.87887547,0.226836735 C4.9432124,0.226836735 5.77628731,0.550244898 6.35497399,1.12781633 C7.16518852,1.93646939 7.35019814,2.88334694 7.35019814,4.31546939 L5.98468894,4.31546939 C5.98468894,3.276 5.84593173,2.60610204 5.36001567,2.05161224 C5.03598302,1.68230612 4.54980114,1.45122449 3.85574926,1.45122449 C3.20768397,1.45122449 2.74462829,1.65922449 2.42059564,1.98263265 C1.91155338,2.49069388 1.70315174,3.32216327 1.70315174,4.33855102 C1.70315174,6.23257143 1.98093199,6.78706122 3.48546421,7.41079592 L5.24411884,8.12685714 C7.02616549,8.84291837 7.37359016,10.1362857 7.37359016,12.515551 C7.37359016,14.248 7.0955441,15.3336327 6.35497399,16.0727755" id="Fill-10"></path>
                            <path d="M14.7098062,16.211398 C14.1545116,16.6963776 13.4139415,16.9967041 12.4418435,16.9967041 C11.3772408,16.9967041 10.5441659,16.6271327 9.98860539,16.0267449 C8.94712884,14.9177653 8.83149783,13.624398 8.83149783,8.58888776 C8.83149783,3.55311224 8.94712884,2.2597449 9.98860539,1.15076531 C10.5441659,0.550377551 11.3772408,0.180806122 12.4418435,0.180806122 C13.4833201,0.180806122 14.2470164,0.504214286 14.8025769,1.05870408 C15.519755,1.77476531 15.8440534,2.88347959 15.8671796,4.13068367 L14.5016704,4.13068367 C14.5016704,3.29921429 14.3395212,2.49056122 13.8536051,1.95941837 C13.5295725,1.61292857 13.089643,1.40492857 12.4418435,1.40492857 C11.770652,1.40492857 11.3078622,1.6360102 10.9838295,2.00558163 C10.312638,2.81396939 10.197007,3.76111224 10.197007,8.58888776 C10.197007,13.416398 10.312638,14.3635408 10.9838295,15.1719286 C11.3078622,15.5415 11.770652,15.7725816 12.4418435,15.7725816 C13.089643,15.7725816 13.5295725,15.5645816 13.8536051,15.2180918 C14.3395212,14.686949 14.5016704,13.8782959 14.5016704,13.0468265 L15.8671796,13.0468265 C15.8440534,14.3635408 15.4968946,15.4953367 14.7098062,16.211398" id="Fill-12"></path>
                            <polygon id="Fill-14" points="22.8794428 16.8119449 22.8794428 9.07376122 18.8060414 9.07376122 18.8060414 16.8119449 17.4407981 16.8119449 17.4407981 0.365618367 18.8060414 0.365618367 18.8060414 7.82655714 22.8794428 7.82655714 22.8794428 0.365618367 24.244952 0.365618367 24.244952 16.8119449"></polygon>
                            <path d="M31.1415044,2.00560816 C30.8174718,1.63603673 30.3312899,1.4049551 29.6606301,1.4049551 C28.9894386,1.4049551 28.5263829,1.63603673 28.2023502,2.00560816 C27.5311587,2.81399592 27.4155277,3.76113878 27.4155277,8.58864898 C27.4155277,13.4164245 27.5311587,14.3635673 28.2023502,15.1719551 C28.5263829,15.5415265 28.9894386,15.7726082 29.6606301,15.7726082 C30.3312899,15.7726082 30.8174718,15.5415265 31.1415044,15.1719551 C31.8124301,14.3635673 31.9285928,13.4164245 31.9285928,8.58864898 C31.9285928,3.76113878 31.8124301,2.81399592 31.1415044,2.00560816 M32.1367286,16.0267714 C31.5811681,16.6271592 30.724967,16.9967306 29.6606301,16.9967306 C28.5957615,16.9967306 27.7624208,16.6271592 27.2073919,16.0267714 C26.1659154,14.9177918 26.0500185,13.6244245 26.0500185,8.58864898 C26.0500185,3.55313878 26.1659154,2.25977143 27.2073919,1.15079184 C27.7624208,0.550404082 28.5957615,0.180832653 29.6606301,0.180832653 C30.724967,0.180832653 31.5811681,0.550404082 32.1367286,1.15079184 C33.1782051,2.25977143 33.2938361,3.55313878 33.2938361,8.58864898 C33.2938361,13.6244245 33.1782051,14.9177918 32.1367286,16.0267714" id="Fill-16"></path>
                            <path d="M40.4056749,2.00560816 C40.0819081,1.63603673 39.5957262,1.4049551 38.9248005,1.4049551 C38.253609,1.4049551 37.7905533,1.63603673 37.4665207,2.00560816 C36.7953292,2.81399592 36.6796982,3.76113878 36.6796982,8.58864898 C36.6796982,13.4164245 36.7953292,14.3635673 37.4665207,15.1719551 C37.7905533,15.5415265 38.253609,15.7726082 38.9248005,15.7726082 C39.5957262,15.7726082 40.0819081,15.5415265 40.4056749,15.1719551 C41.0768664,14.3635673 41.1927632,13.4164245 41.1927632,8.58864898 C41.1927632,3.76113878 41.0768664,2.81399592 40.4056749,2.00560816 M41.400899,16.0267714 C40.8456044,16.6271592 39.9894033,16.9967306 38.9248005,16.9967306 C37.859932,16.9967306 37.026857,16.6271592 36.4715624,16.0267714 C35.4300858,14.9177918 35.314189,13.6244245 35.314189,8.58864898 C35.314189,3.55313878 35.4300858,2.25977143 36.4715624,1.15079184 C37.026857,0.550404082 37.859932,0.180832653 38.9248005,0.180832653 C39.9894033,0.180832653 40.8456044,0.550404082 41.400899,1.15079184 C42.4423756,2.25977143 42.5582724,3.55313878 42.5582724,8.58864898 C42.5582724,13.6244245 42.4423756,14.9177918 41.400899,16.0267714" id="Fill-18"></path>
                            <polygon id="Fill-20" points="44.2707012 16.8119449 44.2707012 0.365618367 45.6362104 0.365618367 45.6362104 15.5878224 50.0105183 15.5878224 50.0105183 16.8119449"></polygon>
                            <polygon id="Fill-22" points="59.7592757 16.7681694 59.7592757 3.53257755 56.7504771 12.2176388 55.7552529 12.2176388 52.7927067 3.80955714 52.7927067 16.7681694 51.4274633 16.7681694 51.4274633 0.321842857 52.7927067 0.321842857 56.264561 10.0002102 59.7592757 0.321842857 61.1247849 0.321842857 61.1247849 16.7681694"></polygon>
                            <path d="M68.0445698,1.96180612 C67.7202714,1.59223469 67.2343553,1.36115306 66.5634296,1.36115306 C65.8922381,1.36115306 65.4291825,1.59223469 65.1051498,1.96180612 C64.4339583,2.77019388 64.3183273,3.71733673 64.3183273,8.54484694 C64.3183273,13.3726224 64.4339583,14.3197653 65.1051498,15.1281531 C65.4291825,15.4979898 65.8922381,15.7288061 66.5634296,15.7288061 C67.2343553,15.7288061 67.7202714,15.4979898 68.0445698,15.1281531 C68.7154955,14.3197653 68.8313924,13.3726224 68.8313924,8.54484694 C68.8313924,3.71733673 68.7154955,2.77019388 68.0445698,1.96180612 M69.039794,15.9829694 C68.4839677,16.5833571 67.6282982,16.9529286 66.5634296,16.9529286 C65.4988269,16.9529286 64.6654862,16.5833571 64.1099257,15.9829694 C63.0687149,14.8739898 62.9530839,13.5806224 62.9530839,8.54484694 C62.9530839,3.50933673 63.0687149,2.21596939 64.1099257,1.1069898 C64.6654862,0.506602041 65.4988269,0.137030612 66.5634296,0.137030612 C67.6282982,0.137030612 68.4839677,0.506602041 69.039794,1.1069898 C70.0812705,2.21596939 70.1969015,3.50933673 70.1969015,8.54484694 C70.1969015,13.5806224 70.0812705,14.8739898 69.039794,15.9829694" id="Fill-24"></path>
                            <path d="M78.1952447,16.0059449 C77.5471794,16.6296796 76.6909783,16.9528224 75.7651328,16.9528224 C74.8395531,16.9528224 73.9830861,16.6296796 73.3352867,16.0059449 C72.7332079,15.4052918 72.3397967,14.5045776 72.3397967,13.3494347 L72.3397967,0.321842857 L73.7053059,0.321842857 L73.7053059,13.4651082 C73.7053059,14.8738837 74.6314172,15.7287 75.7651328,15.7287 C76.8991141,15.7287 77.8018335,14.8738837 77.8018335,13.4651082 L77.8018335,0.321842857 L79.1670768,0.321842857 L79.1670768,13.3494347 C79.1670768,14.5045776 78.7970576,15.4052918 78.1952447,16.0059449" id="Fill-26"></path>
                            <polygon id="Fill-28" points="85.5989521 16.7681694 84.2565691 16.7681694 80.7387282 0.321842857 82.2429946 0.321842857 84.9277606 14.3196592 87.611995 0.321842857 89.1165272 0.321842857"></polygon>
                            <polygon id="Fill-30" points="57.6124996 9.72951837 56.5098848 9.34880408 55.0946676 13.435049 56.1874471 13.8364571"></polygon>
                        </g>
                    </g>
                </g>
            </g>
        </g>
    </g>
</svg>