<svg xmlns="http://www.w3.org/2000/svg" width="17" height="18" viewBox="0 0 17 18">
    <defs>
        <linearGradient id="a" x1="0%" x2="102%" y1="0%" y2="101%">
            <stop offset="0%" stop-color="#00AEFF"/>
            <stop offset="100%" stop-color="#5ACBFF"/>
        </linearGradient>
    </defs>
    <g fill="none" fill-rule="evenodd">
        <path fill="#FFF" d="M1 1h15v5H1z"/>
        <path fill="url(#a)" fill-rule="nonzero" d="M3.923 15.429c0-.355-.128-.658-.383-.91a1.27 1.27 0 0 0-.925-.376c-.36 0-.669.125-.924.377a1.228 1.228 0 0 0-.383.909c0 .354.127.657.383.909.255.25.563.376.924.376.361 0 .67-.125.925-.376.255-.252.383-.555.383-.91zm3.923 0c0-.355-.128-.658-.383-.91a1.27 1.27 0 0 0-.925-.376c-.36 0-.669.125-.924.377a1.228 1.228 0 0 0-.383.909c0 .354.127.657.383.909.255.25.563.376.924.376.361 0 .67-.125.925-.376.255-.252.383-.555.383-.91zM3.923 11.57c0-.354-.128-.657-.383-.909a1.27 1.27 0 0 0-.925-.376c-.36 0-.669.125-.924.376a1.228 1.228 0 0 0-.383.91c0 .354.127.657.383.908.255.252.563.377.924.377.361 0 .67-.125.925-.377.255-.25.383-.554.383-.909zm7.846 3.858c0-.355-.127-.658-.383-.91a1.27 1.27 0 0 0-.924-.376c-.361 0-.67.125-.925.377a1.228 1.228 0 0 0-.383.909c0 .354.128.657.383.909.255.25.564.376.925.376.36 0 .669-.125.924-.376.256-.252.383-.555.383-.91zM7.846 11.57c0-.354-.128-.657-.383-.909a1.27 1.27 0 0 0-.925-.376c-.36 0-.669.125-.924.376a1.228 1.228 0 0 0-.383.91c0 .354.127.657.383.908.255.252.563.377.924.377.361 0 .67-.125.925-.377.255-.25.383-.554.383-.909zM3.923 7.714c0-.355-.128-.658-.383-.909a1.27 1.27 0 0 0-.925-.376c-.36 0-.669.125-.924.376a1.228 1.228 0 0 0-.383.91c0 .354.127.657.383.908.255.251.563.377.924.377.361 0 .67-.126.925-.377.255-.25.383-.554.383-.909zm7.846 3.857c0-.354-.127-.657-.383-.909a1.27 1.27 0 0 0-.924-.376c-.361 0-.67.125-.925.376a1.228 1.228 0 0 0-.383.91c0 .354.128.657.383.908.255.252.564.377.925.377.36 0 .669-.125.924-.377.256-.25.383-.554.383-.909zM7.846 7.714c0-.355-.128-.658-.383-.909a1.27 1.27 0 0 0-.925-.376c-.36 0-.669.125-.924.376a1.228 1.228 0 0 0-.383.91c0 .354.127.657.383.908.255.251.563.377.924.377.361 0 .67-.126.925-.377.255-.25.383-.554.383-.909zm7.846 7.715V11.57c0-.348-.13-.65-.388-.904a1.267 1.267 0 0 0-.92-.381c-.354 0-.66.127-.919.381a1.225 1.225 0 0 0-.388.904v3.858c0 .348.13.65.388.904.259.254.565.381.92.381.354 0 .66-.127.92-.381.258-.255.387-.556.387-.904zM11.77 7.714c0-.355-.127-.658-.383-.909a1.27 1.27 0 0 0-.924-.376c-.361 0-.67.125-.925.376a1.228 1.228 0 0 0-.383.91c0 .354.128.657.383.908s.564.377.925.377c.36 0 .669-.126.924-.377.256-.25.383-.554.383-.909zM15.692 4.5V1.929a.613.613 0 0 0-.194-.452.634.634 0 0 0-.46-.191H1.962a.634.634 0 0 0-.46.19.613.613 0 0 0-.194.453V4.5c0 .174.064.325.194.452s.282.19.46.19h13.076c.178 0 .33-.063.46-.19a.613.613 0 0 0 .194-.452zm0 3.214c0-.355-.127-.658-.383-.909a1.27 1.27 0 0 0-.924-.376c-.361 0-.67.125-.925.376a1.228 1.228 0 0 0-.383.91c0 .354.128.657.383.908s.564.377.925.377c.36 0 .669-.126.924-.377.256-.25.383-.554.383-.909zM17 1.286v15.428c0 .349-.13.65-.388.904a1.267 1.267 0 0 1-.92.382H1.308c-.354 0-.661-.127-.92-.382A1.225 1.225 0 0 1 0 16.714V1.286C0 .937.13.636.388.382.647.127.954 0 1.308 0h14.384c.354 0 .661.127.92.382.259.254.388.555.388.904z"/>
    </g>
</svg>
