<svg xmlns="http://www.w3.org/2000/svg" width="16" height="22" viewBox="0 0 16 22">
    <defs>
        <linearGradient id="a" x1="10.032%" x2="88.205%" y1="68.96%" y2="25.262%">
            <stop offset="0%" stop-color="#A94ABB"/>
            <stop offset="100%" stop-color="#C871A3"/>
        </linearGradient>
    </defs>
    <path fill="url(#a)" fill-rule="evenodd" d="M6.932 14.257L6.884 22c1.336-.1 1.684-.544 2.404-1.202l-.018-6.512c1.514-.862 4.51-.946 6.084-4.592 1.179-2.731.676-6.337-.954-8.202-2.01-2.297-5.578-1.848-6.928.864-1.008 2.024-.684 7.812-.566 10.324C2.51 11.63 1.009 4.57 5.356 1.443 7.802-.32 6.115-.401 4.03.837c-6.219 3.692-5.232 12.866 2.902 13.42zm2.285-1.54c3.924.566 5.998-6.414 3.21-10.236-.953-1.307-3.249-2.765-3.262 2.15-.007 2.688-.015 5.4.052 8.085z"/>
</svg>
